<svg width="160" height="160" viewBox="0 0 160 160" fill="none" xmlns="http://www.w3.org/2000/svg">
    <path
        d="M125 32.668H35C26.7157 32.668 20 38.6375 20 46.0013V126.001C20 133.365 26.7157 139.335 35 139.335H125C133.284 139.335 140 133.365 140 126.001V46.0013C140 38.6375 133.284 32.668 125 32.668Z"
        fill="url(#paint0_linear)" />
    <rect x="46.666" y="19.332" width="13.3333" height="33.3333" rx="6.66667" fill="#2E86F3" />
    <rect x="46.666" y="19.332" width="13.3333" height="33.3333" rx="6.66667"
        fill="url(#paint1_linear)" />
    <rect x="100" y="19.332" width="13.3333" height="33.3333" rx="6.66667" fill="#2E86F3" />
    <rect x="100" y="19.332" width="13.3333" height="33.3333" rx="6.66667"
        fill="url(#paint2_linear)" />
    <path d="M35 78.5L125 78.5" stroke="white" stroke-width="12.5" stroke-linecap="round" />
    <defs>
        <linearGradient id="paint0_linear" x1="140.211" y1="132.378" x2="17.365" y2="129.019"
            gradientUnits="userSpaceOnUse">
            <stop stop-color="#1773EB" />
            <stop offset="1" stop-color="#4DA0FF" />
        </linearGradient>
        <linearGradient id="paint1_linear" x1="58.3502" y1="50.4915" x2="48.106" y2="50.4168"
            gradientUnits="userSpaceOnUse">
            <stop stop-color="#45B6FF" stop-opacity="0.29" />
            <stop offset="1" stop-color="#2EB3FF" />
        </linearGradient>
        <linearGradient id="paint2_linear" x1="111.684" y1="50.4915" x2="101.44" y2="50.4168"
            gradientUnits="userSpaceOnUse">
            <stop stop-color="#45B6FF" stop-opacity="0.29" />
            <stop offset="1" stop-color="#2EB3FF" />
        </linearGradient>
    </defs>
</svg>
